<?xml version="1.0" standalone="no"?><!DOCTYPE svg PUBLIC "-//W3C//DTD SVG 1.1//EN" "http://www.w3.org/Graphics/SVG/1.1/DTD/svg11.dtd"><svg t="1593420358363" class="icon" viewBox="0 0 1466 1024" version="1.1" xmlns="http://www.w3.org/2000/svg" p-id="2172" xmlns:xlink="http://www.w3.org/1999/xlink" width="286.328125" height="200"><defs><style type="text/css"></style></defs><path d="M967.749378 791.272368h6.399997l-3.025453-3.025454a374.690739 374.690739 0 0 0 27.391988-27.461805l3.118544 3.118544 246.853706-245.08498-221.928627-220.346081C959.208291 202.42609 847.66216 139.6363 721.454218 139.6363c-126.975942 0-239.103891 63.534517-306.315498 160.581745l-225.023897 223.418081 246.853706 245.061706 7.679996-7.633451A371.432558 371.432558 0 0 0 721.454218 884.363234a370.967104 370.967104 0 0 0 246.29516-93.090866z m111.476313 104.331589A510.068132 510.068132 0 0 1 740.165482 1023.999535a510.114677 510.114677 0 0 1-342.690754-131.583941l-7.02836 7.005088L11.915631 523.636126 323.630398 214.155539C416.511811 84.479962 568.459378 0 740.118936 0c180.642827 0 339.432573 93.556321 430.545259 234.821711l290.908959 288.814415L1083.112235 899.420682l-3.839998-3.816725z" fill="#000000" p-id="2173"></path><path d="M721.454218 535.272484m-162.909017 0a162.909017 162.909017 0 1 0 325.818033 0 162.909017 162.909017 0 1 0-325.818033 0Z" fill="#FF6D00" p-id="2174"></path></svg>