<?xml version="1.0" standalone="no"?><!DOCTYPE svg PUBLIC "-//W3C//DTD SVG 1.1//EN" "http://www.w3.org/Graphics/SVG/1.1/DTD/svg11.dtd"><svg t="1593420569375" class="icon" viewBox="0 0 1024 1024" version="1.1" xmlns="http://www.w3.org/2000/svg" p-id="6073" xmlns:xlink="http://www.w3.org/1999/xlink" width="200" height="200"><defs><style type="text/css"></style></defs><path d="M153.7 723.9a261.3 83.2 0 1 0 522.6 0 261.3 83.2 0 1 0-522.6 0Z" fill="#D4D4E0" p-id="6074"></path><path d="M698.1 499.3c-0.3 0-0.7-0.1-0.9-0.4-0.1-0.1-13-12.6-27.7-25.1-24.4-20.7-34.9-25.6-39.4-26-0.6-0.1-1-0.5-1.2-1s0.1-1.1 0.6-1.5c0.3-0.2 25.9-17.6 63.1-52.5 9.3-8.7 17.5-17.2 25.4-25.3 17.3-17.9 35.2-36.3 65.5-58.1 19.5-14 41.4-27 65.2-38.8l40.3-20c0.9-1.9 4.4-8.6 11-8.6 2 0 4.1 0.6 6.2 1.9 0.1 0.1 0.2 0.1 0.3 0.2 0.1 0 5.1 5 7.4 7.4 3.5 3.6 6.1 14.6 6.3 17 0.4 6.2-2.9 12.3-8.4 15.3-28.5 15.9-124.6 70.9-161.7 109.4-43.1 44.8-50.4 104.4-50.5 105-0.1 0.5-0.4 0.9-0.9 1.1h-0.6z" fill="#FFFFFF" p-id="6075"></path><path d="M899.9 243.3c1.6 0 3.5 0.5 5.5 1.7 0 0 5.1 5 7.4 7.3 3 3.1 5.7 13.8 5.9 16.1 0.4 5.8-2.6 11.2-7.7 14.1-28.4 15.8-124.7 71-162 109.7-44 45.6-50.9 105.8-50.9 105.8s-51.4-50-68-51.5c0 0 25.5-17.3 63.3-52.6 29.7-27.8 46.7-51.8 90.8-83.3 20.5-14.7 42.4-27.5 65-38.7l40.8-20.3s3.2-8.3 9.9-8.3m0-2.7c-6.9 0-10.8 6.4-12 9L848 269.4c-23.8 11.8-45.8 24.9-65.3 38.9-30.4 21.8-48.3 40.3-65.7 58.2-7.9 8.2-16.1 16.6-25.4 25.3-37.2 34.8-62.7 52.2-63 52.4-0.9 0.6-1.4 1.8-1.1 2.9 0.3 1.1 1.2 1.9 2.4 2 12.8 1.2 52.2 37.1 66.4 50.8 0.5 0.5 1.2 0.8 1.9 0.8 0.3 0 0.6-0.1 0.9-0.2 1-0.3 1.7-1.2 1.8-2.2 0-0.1 1.8-15.1 8.8-35.4 6.5-18.6 18.9-45.7 41.3-68.9 37-38.4 132.9-93.3 161.4-109.2 5.9-3.3 9.5-9.8 9.1-16.6-0.2-2.5-2.9-14-6.7-17.8l-7.4-7.4c-0.2-0.2-0.3-0.3-0.5-0.4-2.4-1.3-4.8-2-7-2z" fill="#26273A" p-id="6076"></path><path d="M687.4 482c-0.7 0-1.3-0.2-1.8-0.7-12.3-11.3-46.9-40.8-59.7-42.1-1.1-0.1-2.1-0.9-2.4-2s0.2-2.3 1.1-2.9c0.3-0.2 25.8-17.6 63-52.4 9.3-8.7 17.5-17.1 25.4-25.3 17.3-17.9 35.3-36.4 65.7-58.2 19.6-14 41.5-27.1 65.3-38.9l40.8-20.3c0.2-0.1 1.5-0.7 3.5-1.2 1.8-0.4 3.6-0.7 5.4-0.7 7.8 0 15.4 4 20.4 10.6 1.4 1.8 2.7 5.8 2.7 5.8 0.4 1.1 0.4 1.8 0.4 2.8 0 0.4 0 1 0.1 1.7 0.4 6.7-3.1 13.3-9.1 16.6-28.5 15.9-124.4 70.8-161.4 109.2-43 44.6-56.8 95.3-56.9 95.8-0.2 0.9-0.9 1.6-1.9 1.9-0.1 0.3-0.4 0.3-0.6 0.3z" fill="#FFFFFF" p-id="6077"></path><path d="M893.7 240.2c7.1 0 13.9 3.7 18.2 9.5 0.9 1.2 2 4.2 2.3 5 0.4 1.1 0.2 1.5 0.4 3.8 0.4 5.8-2.6 11.2-7.7 14-28.4 15.8-124.7 71-162 109.7-44 45.6-57.6 97-57.6 97S642.6 438 626 436.4c0 0 25.5-17.3 63.3-52.6C719 356 736 332 780.1 300.5c20.5-14.7 42.4-27.5 65-38.7l40.8-20.3s1.1-0.5 3-1c1.6-0.1 3.2-0.3 4.8-0.3m0-5.4c-2 0-4.1 0.2-6.1 0.7-2.3 0.5-3.7 1.2-3.9 1.3 0 0-0.1 0-0.1 0.1l-40.8 20.3c-23.9 11.9-46 25.1-65.7 39.2-30.6 21.9-48.6 40.5-66 58.5-7.9 8.1-16 16.6-25.3 25.2-37 34.6-62.4 51.9-62.7 52.1-1.9 1.3-2.8 3.6-2.2 5.8 0.6 2.2 2.5 3.8 4.7 4 10.7 1 41.3 25.9 58.1 41.4 1 0.9 2.3 1.4 3.7 1.4 0.5 0 1-0.1 1.5-0.2 1.8-0.5 3.2-2 3.7-3.8 0.1-0.5 13.8-50.7 56.2-94.7 36.7-38.1 132.3-92.8 160.8-108.7 6.8-3.8 10.9-11.3 10.4-19.1 0-0.7-0.1-1.2-0.1-1.6 0-1.1-0.1-2.1-0.6-3.6 0 0-1.5-4.3-3.1-6.6-5.4-7.3-13.8-11.7-22.5-11.7z" fill="#26273A" p-id="6078"></path><path d="M914.7 258.6c-0.2-2.4-0.4-4.5-0.7-5.6-0.2-0.7-0.7-1.6-1.6-2.4-4.4-4.2-8.6-7.3-15.8-7.8-4.1-0.3-8.1 0.9-8.1 0.9C921 249 908 264.9 908 264.9s-121.8 62.9-172.8 119.9c-35.6 39.8-47.7 73.9-51.8 90.9 2.5 2.3 4.1 3.7 4.1 3.7s13.6-51.4 57.6-97c37.3-38.7 133.6-93.8 162-109.7 4.9-2.9 7.9-8.3 7.6-14.1zM697.5 401.4s7.8 1 7.6 3.9c-0.2 2.9 6.2-10.1 6.2-10.1l-10.6-6.4-60.6 49 11.5 6c0-0.1 37.2-39.7 45.9-42.4z" fill="#D1D3DF" p-id="6079"></path><path d="M416.4 743.6c-75.2 0-145.8-22.1-199-62.1-53.4-40.2-82.9-93.7-82.9-150.7 0-1.5 1.2-2.7 2.7-2.7h558.4c1.5 0 2.7 1.2 2.7 2.7 0 57-29.4 110.5-82.9 150.7-53.1 40.1-123.8 62.1-199 62.1z" fill="#D1D3DF" p-id="6080"></path><path d="M695.6 530.8c0 116.1-125 210.1-279.2 210.1s-279.2-94.1-279.2-210.1h558.4m0-5.4H137.2c-3 0-5.4 2.4-5.4 5.4 0 29.3 7.6 57.7 22.6 84.4 14.4 25.7 35.1 48.7 61.3 68.5 26.1 19.7 56.5 35.1 90.4 45.9 35 11.1 72.1 16.8 110.3 16.8s75.4-5.6 110.3-16.8c33.8-10.8 64.2-26.2 90.4-45.9 26.2-19.8 46.9-42.8 61.3-68.5 15-26.7 22.6-55 22.6-84.3v-0.2c0-2.9-2.4-5.3-5.4-5.3z m0 10.8z" fill="#26273A" p-id="6081"></path><path d="M507 729.5C616.7 701.2 695.6 623 695.6 530.8h-33.8C667.3 571.5 648 642 507 729.5zM137.2 530.8c0 83.2 64.2 155 157.3 189.1C167.3 636.8 149.6 570 154.9 530.8h-17.7z" fill="#FFFFFF" p-id="6082"></path><path d="M269.7 584.5c0 74.8 69.7 135.4 155.7 135.4s155.7-60.6 155.7-135.4c0-11.9-2-23.4-5.3-34.5H274.9c-3.3 11-5.2 22.5-5.2 34.5z" fill="#A3A5BB" p-id="6083"></path><path d="M416.4 660.4c-165.3 0-294.8-52.8-294.8-120.3 0-16.9 7.9-33.6 23.6-49.5 15-15.3 36.3-29.1 63.4-41.2 56.5-25.1 130.3-38.9 207.8-38.9s151.4 13.8 207.8 38.9c27 12 48.4 25.9 63.4 41.2 15.7 15.9 23.6 32.6 23.6 49.5 0 67.4-129.5 120.3-294.8 120.3z" fill="#A4A5C0" p-id="6084"></path><path d="M416.4 412.5c161.7 0 292.8 60.8 292.8 127.6S578.1 658.4 416.4 658.4c-161.7 0-292.8-51.4-292.8-118.3s131.1-127.6 292.8-127.6m0-4.1c-39.5 0-78.1 3.6-114.7 10.6-35 6.7-66.6 16.3-93.9 28.5-27.3 12.1-48.8 26.1-64 41.6-16 16.3-24.2 33.5-24.2 51 0 33.9 31.4 65.2 88.3 88 55.3 22.2 129.4 34.4 208.5 34.4s153.2-12.2 208.5-34.4c56.9-22.8 88.3-54 88.3-88 0-17.5-8.1-34.6-24.2-51-15.2-15.5-36.7-29.5-64-41.6-27.4-12.2-59-21.7-93.9-28.5-36.6-7-75.1-10.6-114.7-10.6z" fill="#26273A" p-id="6085"></path><path d="M416.4 644.1c-78.5 0-152.4-12.7-208-35.6-56.4-23.3-87.4-54.6-87.4-88.1 0-33.5 31-64.8 87.4-88.1 55.6-23 129.5-35.6 208-35.6s152.4 12.7 208 35.6c56.4 23.3 87.4 54.6 87.4 88.1 0 33.5-31 64.8-87.4 88.1-55.6 22.9-129.4 35.6-208 35.6z" fill="#D1D3DF" p-id="6086"></path><path d="M416.4 399.3c161.7 0 292.8 54.2 292.8 121s-131.1 121-292.8 121c-161.7 0-292.8-54.2-292.8-121s131.1-121 292.8-121m0-5.4c-78.9 0-153.1 12.7-209.1 35.9-57.4 23.7-89.1 55.9-89.1 90.6s31.6 66.8 89.1 90.6c55.9 23.1 130.2 35.9 209.1 35.9s153.1-12.7 209.1-35.9c57.4-23.7 89.1-55.9 89.1-90.6s-31.6-66.8-89.1-90.6c-55.9-23.1-130.2-35.9-209.1-35.9z" fill="#26273A" p-id="6087"></path><path d="M416.4 433.5c-127.8 0-225.9 34.6-261.7 82.6-9.3 12.5-9.3 30.2 0 42.6 35.8 48 133.9 82.6 261.7 82.6s225.9-34.6 261.7-82.6c9.3-12.5 9.3-30.2 0-42.6-35.8-48-133.9-82.6-261.7-82.6z" fill="#FFFFFF" p-id="6088"></path><path d="M416.4 644.1c-47.6 0-93.1-4.6-135.3-13.6-1.1-0.2-1.9-1.1-2.1-2.1-0.2-1.1 0.2-2.1 1.1-2.7 26.8-18.7 79-30.3 136.3-30.3s109.5 11.6 136.3 30.3c0.9 0.6 1.3 1.7 1.1 2.7-0.2 1.1-1 1.9-2.1 2.1-42.2 9-87.7 13.6-135.3 13.6z" fill="#A4A5C0" p-id="6089"></path><path d="M416.4 597.9c58.5 0 109.3 12.1 134.7 29.9-40.3 8.7-86.1 13.6-134.7 13.6s-94.4-4.9-134.7-13.6c25.4-17.8 76.2-29.9 134.7-29.9m0-5.4c-57.8 0-110.6 11.8-137.8 30.8-1.8 1.2-2.6 3.4-2.2 5.5s2.1 3.8 4.2 4.2c42.4 9.1 88.1 13.7 135.8 13.7 47.8 0 93.5-4.6 135.8-13.7 2.1-0.5 3.7-2.1 4.2-4.2 0.4-2.1-0.4-4.3-2.2-5.5-27.2-19-80-30.8-137.8-30.8z" fill="#26273A" p-id="6090"></path><path d="M340.1 637.1c24.3 2.7 49.9 4.2 76.3 4.2s52-1.5 76.3-4.2c-21.5-6.5-47.9-10.3-76.3-10.3-28.4 0.1-54.8 3.9-76.3 10.3z" fill="#D1D3DF" p-id="6091"></path><path d="M862.2 265.1l21.2-10.4s4.1-2.5 6.4-1c2.3 1.5 9.5 4.9 9.5 4.9s3.5 1.6 1.3 3.8c-2.2 2.2-23.3 13.2-23.3 13.2s-3.8 1.9-7 0-10.8-4.7-10.8-4.7-6.2-2.3 2.7-5.8z" fill="#A3A5BB" p-id="6092"></path><path d="M887.4 253.3v17c0.2-0.1 0.4-0.2 0.7-0.4v-16.7c-0.3 0-0.5 0-0.7 0.1z" fill="#FFFFFF" p-id="6093"></path><path d="M672.8 495.2s-29.6 8.9-82.2 48.2c-1.3 1-3.2 0-3.1-1.6 1.7-19.9 32.2-77.3 1.5-85.5 0.1 0.1 68.4-0.5 83.8 38.9z" fill="#D1D3DF" p-id="6094"></path><path d="M617.6 453.5m-8.5 0a8.5 8.5 0 1 0 17 0 8.5 8.5 0 1 0-17 0Z" fill="#A3A5BB" p-id="6095"></path><path d="M672.8 483.9m-8.5 0a8.5 8.5 0 1 0 17 0 8.5 8.5 0 1 0-17 0Z" fill="#A3A5BB" p-id="6096"></path></svg>