<?xml version="1.0" standalone="no"?><!DOCTYPE svg PUBLIC "-//W3C//DTD SVG 1.1//EN" "http://www.w3.org/Graphics/SVG/1.1/DTD/svg11.dtd"><svg t="1593673086029" class="icon" viewBox="0 0 1024 1024" version="1.1" xmlns="http://www.w3.org/2000/svg" p-id="2364" xmlns:xlink="http://www.w3.org/1999/xlink" width="200" height="200"><defs><style type="text/css"></style></defs><path d="M945.92 192a14.08 14.08 0 0 1 14.08 14.08v611.84a14.08 14.08 0 0 1-14.08 14.08H78.08a14.08 14.08 0 0 1-14.08-14.08V206.08A14.08 14.08 0 0 1 78.08 192h867.84m0-64H78.08A78.08 78.08 0 0 0 0 206.08v611.84A78.08 78.08 0 0 0 78.08 896h867.84A78.08 78.08 0 0 0 1024 817.92V206.08A78.08 78.08 0 0 0 945.92 128z" fill="" p-id="2365"></path><path d="M64 832h611.84L320 512l-256 195.2V832zM960 563.2L832 448l-284.8 216.96 185.6 167.04H960V563.2z" fill="" p-id="2366"></path><path d="M288 352m-96 0a96 96 0 1 0 192 0 96 96 0 1 0-192 0Z" fill="" p-id="2367"></path></svg>