<?xml version="1.0" standalone="no"?><!DOCTYPE svg PUBLIC "-//W3C//DTD SVG 1.1//EN" "http://www.w3.org/Graphics/SVG/1.1/DTD/svg11.dtd"><svg t="1605172229954" class="icon" viewBox="0 0 1024 1024" version="1.1" xmlns="http://www.w3.org/2000/svg" p-id="12343" xmlns:xlink="http://www.w3.org/1999/xlink" width="200" height="200"><defs><style type="text/css"></style></defs><path d="M249.4976 62.0032c-41.4208 0-74.99776 33.57696-74.99776 74.99776v262.5024H99.50208a37.49888 37.49888 0 0 0-37.504 37.49888v318.7456a37.49888 37.49888 0 0 0 37.504 37.504h74.99776v93.7472c0 41.4208 33.57696 75.00288 74.99776 75.00288h637.50144c41.4208 0 75.00288-33.58208 75.00288-75.00288V310.25152l-246.66112-248.25344H249.4976z m0 56.24832h442.4192l7.58272 7.60832v112.4608c0 47.5904 38.58944 86.17984 86.17984 86.17984h111.20128l8.86784 8.91904v553.57952a18.74944 18.74944 0 0 1-18.74944 18.74944H249.4976a18.74944 18.74944 0 0 1-18.74944-18.74944v-93.7472h562.50368a37.49888 37.49888 0 0 0 37.49888-37.504V437.00224a37.49888 37.49888 0 0 0-37.49888-37.504H230.74816v-262.5024a18.74944 18.74944 0 0 1 18.74944-18.74432z m235.4688 354.048c23.168 0 40.04864 2.83136 50.65216 8.4992v39.168c-12.55936-9.7792-28.7232-14.6688-48.4864-14.6688-5.45792 0-10.91584 0.5632-16.37376 1.67424a47.08352 47.08352 0 0 0-14.51008 5.49888 32.56832 32.56832 0 0 0-10.34752 9.8304c-2.67776 3.99872-4.0192 8.832-4.0192 14.49984 0 5.32992 1.02912 9.94816 3.08736 13.83936 2.05824 3.8912 5.04832 7.43936 8.96 10.65984 4.01408 3.2256 8.8576 6.38976 14.52032 9.4976 5.76512 3.00032 12.40576 6.28736 19.9168 9.84064a253.48608 253.48608 0 0 1 21.77536 13.66016 101.31968 101.31968 0 0 1 18.06848 15.84128 67.26656 67.26656 0 0 1 12.34944 19.328c3.08736 7.00416 4.63872 15.0016 4.63872 24.00256 0 12.1088-2.26816 22.33856-6.79936 30.6688a57.05216 57.05216 0 0 1-18.3808 20.3264c-7.61856 5.2224-16.4096 9.00096-26.39872 11.33568-9.984 2.3296-20.54144 3.49696-31.65696 3.49696-3.70688 0-8.2944-0.3328-13.75232-0.9984a153.29792 153.29792 0 0 1-16.52224-2.6624 132.5056 132.5056 0 0 1-16.05632-4.16768c-5.04832-1.66912-9.1136-3.5584-12.20096-5.66784v-40.832a59.39712 59.39712 0 0 0 12.04736 9.00096c4.736 2.6624 9.728 4.9408 14.98112 6.83008 5.25312 1.77664 10.496 3.16928 15.74912 4.16768 5.25312 1.00352 10.0864 1.50016 14.51008 1.50016 15.44704 0 26.92608-2.77504 34.44224-8.33024 7.61856-5.5552 11.42784-13.61408 11.42784-24.1664 0-5.66784-1.28-10.56256-3.86048-14.67392-2.46784-4.21888-5.96992-8.05376-10.496-11.49952-4.5312-3.44576-9.8816-6.71744-16.06144-9.8304a724.8896 724.8896 0 0 0-19.61984-9.99936 319.41632 319.41632 0 0 1-21.00224-13.16864 96.25088 96.25088 0 0 1-16.98816-14.65856 65.76128 65.76128 0 0 1-11.26912-18.33984c-2.67776-6.77888-4.00896-14.72-4.00896-23.8336 0-11.22304 2.304-20.94592 6.9376-29.16864a62.13632 62.13632 0 0 1 18.53952-20.50048c7.72096-5.44256 16.47104-9.4464 26.25024-12.00128 9.7792-2.6624 19.76832-3.9936 29.96224-3.9936z m172.3392 0c23.168 0 40.05888 2.83136 50.6624 8.4992v39.168c-12.55936-9.7792-28.7232-14.6688-48.4864-14.6688-5.45792 0-10.91584 0.5632-16.37376 1.67424a47.14496 47.14496 0 0 0-14.52032 5.49888 32.56832 32.56832 0 0 0-10.34752 9.8304c-2.67776 3.99872-4.00896 8.832-4.00896 14.49984 0 5.32992 1.02912 9.94816 3.08736 13.83936 2.05824 3.8912 5.03808 7.43936 8.94976 10.65984 4.0192 3.2256 8.8576 6.38976 14.52032 9.4976 5.76512 3.00032 12.40576 6.28736 19.9168 9.84064a253.69088 253.69088 0 0 1 21.7856 13.66016 101.24288 101.24288 0 0 1 18.05824 15.84128 67.29728 67.29728 0 0 1 12.35968 19.328c3.08736 7.00416 4.6336 15.0016 4.6336 24.00256 0 12.1088-2.26304 22.33856-6.79424 30.6688a57.05216 57.05216 0 0 1-18.3808 20.3264c-7.61344 5.2224-16.41984 9.00096-26.40896 11.33568-9.984 2.3296-20.54144 3.49696-31.65696 3.49696-3.70688 0-8.28416-0.3328-13.74208-0.9984a153.472 153.472 0 0 1-16.52736-2.6624 132.5056 132.5056 0 0 1-16.06144-4.16768c-5.0432-1.66912-9.1136-3.5584-12.20096-5.66784v-40.832a59.39712 59.39712 0 0 0 12.05248 9.00096c4.736 2.6624 9.728 4.9408 14.976 6.83008 5.25312 1.77664 10.50112 3.16928 15.75424 4.16768 5.248 1.00352 10.0864 1.50016 14.5152 1.50016 15.44704 0 26.9312-2.77504 34.44224-8.33024 7.61856-5.5552 11.4176-13.61408 11.4176-24.1664 0-5.66784-1.28-10.56256-3.85536-14.67392-2.47296-4.21888-5.96992-8.05376-10.50112-11.49952-4.5312-3.44576-9.8816-6.71744-16.06144-9.8304-6.07232-3.2256-12.61056-6.5536-19.6096-9.99936a319.41632 319.41632 0 0 1-21.00224-13.16864 96.25088 96.25088 0 0 1-16.98816-14.65856 65.792 65.792 0 0 1-11.27936-18.33984c-2.67776-6.77888-4.00896-14.72-4.00896-23.8336 0-11.22304 2.31424-20.94592 6.94784-29.16864 4.736-8.33536 10.91072-15.16544 18.5344-20.50048 7.71584-5.44256 16.46592-9.4464 26.24512-12.00128 9.7792-2.6624 19.76832-3.9936 29.96224-3.9936z m-397.95712 3.99872h41.37984l82.31936 239.0016h-40.30976l-19.9168-60.8256H235.71968l-19.1488 60.8256h-40.15104l82.92864-239.0016z m19.456 35.50208c-0.93184 6.33344-1.95072 11.33056-3.08224 15.0016l-30.43328 95.3344H313.088l-30.73024-95.3344c-0.9216-3.11296-1.90976-8.1152-2.93888-15.0016h-0.6144z" p-id="12344"></path></svg>