<?xml version="1.0" standalone="no"?><!DOCTYPE svg PUBLIC "-//W3C//DTD SVG 1.1//EN" "http://www.w3.org/Graphics/SVG/1.1/DTD/svg11.dtd"><svg t="1605172188003" class="icon" viewBox="0 0 1024 1024" version="1.1" xmlns="http://www.w3.org/2000/svg" p-id="9861" xmlns:xlink="http://www.w3.org/1999/xlink" width="200" height="200"><defs><style type="text/css"></style></defs><path d="M1024 1023.968002h-1023.936004v-1023.936004h1023.936004v1023.936004zM275.022811 429.349166v265.263421a30.590088 30.590088 0 0 0 31.326042 31.230048h416.869946a30.526092 30.526092 0 0 0 31.19805-31.230048v-265.263421z m371.176802-99.193801l70.87557 83.354791h37.533654v-52.028749a30.590088 30.590088 0 0 0-31.19805-31.326042h-77.211174z m-104.217487 0l70.87557 83.354791h80.218987l-70.875571-83.354791h-80.218986z m-104.217486 0l70.87557 83.354791h80.186988l-70.87557-83.354791H437.732642z m-104.345479 0l70.875571 83.354791h80.346978l-70.87557-83.354791H333.419161z m-23.9985 0h-3.03981a30.654084 30.654084 0 0 0-31.326042 31.326042v52.028749h105.369414z m156.790201 339.178802c-13.75914 0-29.822136-6.591588-29.822136-25.150428v-140.087245c0-18.462846 15.999-24.990438 29.822136-24.990438a31.998 31.998 0 0 1 15.999 4.031748l113.048934 66.043872a28.254234 28.254234 0 0 1 14.911068 25.022436 28.542216 28.542216 0 0 1-14.911068 24.990438L482.209862 665.238423a28.7982 28.7982 0 0 1-16.190988 3.903756z" fill="#2A74EA" p-id="9862"></path></svg>