<?xml version="1.0" standalone="no"?><!DOCTYPE svg PUBLIC "-//W3C//DTD SVG 1.1//EN" "http://www.w3.org/Graphics/SVG/1.1/DTD/svg11.dtd"><svg t="1605172221777" class="icon" viewBox="0 0 1024 1024" version="1.1" xmlns="http://www.w3.org/2000/svg" p-id="11557" xmlns:xlink="http://www.w3.org/1999/xlink" width="200" height="200"><defs><style type="text/css"></style></defs><path d="M880.085333 1017.429333H143.914667A58.538667 58.538667 0 0 1 85.333333 959.146667V58.282667C85.333333 26.368 111.445333 0 143.914667 0h513.024L938.666667 288.768V959.146667c0 32.298667-26.112 58.282667-58.581334 58.282666z" fill="#3C81E2" p-id="11558"></path><path d="M303.274667 550.570667h23.893333V768h-22.4v-25.386667c-10.752 19.712-28.074667 29.568-51.370667 29.568-22.698667 0-40.32-8.362667-52.864-24.490666-11.648-14.933333-17.322667-34.048-17.322666-57.344 0-22.698667 5.674667-41.216 17.322666-56.149334 12.544-16.725333 29.568-24.789333 51.669334-24.789333 22.101333 0 39.125333 10.752 51.072 32.554667v-91.392zM257.28 629.12c-17.024 0-29.866667 5.973333-38.229333 17.92-7.765333 10.453333-11.349333 24.789333-11.349334 43.306667 0 18.517333 3.584 33.152 11.050667 43.904 8.362667 11.946667 20.906667 18.218667 37.632 18.218666 15.530667 0 27.477333-5.973333 36.138667-17.92 7.466667-10.752 11.349333-24.789333 11.349333-42.112v-2.986666c0-17.92-4.48-32.554667-12.842667-43.605334a40.405333 40.405333 0 0 0-33.749333-16.725333z m175.914667-19.712c22.997333 0 41.514667 7.765333 55.253333 23.893333 13.141333 15.232 19.712 34.346667 19.712 57.642667 0 22.997333-6.570667 42.112-19.413333 57.045333-14.037333 16.128-32.554667 24.192-55.552 24.192-23.296 0-41.514667-8.064-55.253334-24.192-13.141333-14.933333-19.712-34.048-19.712-57.045333 0-23.296 6.570667-42.410667 19.712-57.642667 13.738667-16.128 31.957333-23.893333 55.253334-23.893333z m0 20.010667c-16.426667 0-29.269333 6.272-38.229334 18.816-8.362667 11.349333-12.245333 25.386667-12.245333 42.709333 0 17.024 3.882667 31.061333 12.245333 42.410667 8.96 12.544 21.802667 18.816 38.229334 18.816 16.128 0 28.970667-6.272 38.528-18.816 8.064-11.349333 12.245333-25.685333 12.245333-42.410667 0-17.322667-4.181333-31.36-12.245333-42.709333a45.952 45.952 0 0 0-38.528-18.816z m172.629333-20.010667c19.114667 0 34.346667 4.48 45.994667 13.44 11.946667 9.258667 19.114667 23.296 21.802666 42.112h-23.594666c-2.090667-11.946667-6.869333-20.906667-14.336-26.88-7.765333-5.973333-17.621333-8.661333-29.866667-8.661333-14.933333 0-26.88 5.674667-35.541333 17.024-8.362667 11.050667-12.544 25.984-12.544 44.8 0 18.816 3.882667 33.749333 12.245333 44.501333 8.064 10.752 20.010667 16.426667 35.541333 16.426667 26.282667 0 41.514667-13.44 45.098667-40.021334h23.893333c-3.584 19.712-11.050667 34.944-22.997333 45.098667-11.648 9.856-26.88 14.933333-45.994667 14.933333-23.296 0-41.216-7.765333-54.058666-23.296-12.245333-14.634667-18.218667-33.749333-18.218667-57.344s5.973333-42.709333 18.218667-57.642666c13.141333-16.426667 31.36-24.490667 54.357333-24.490667z m86.314667 4.181333h28.074666l40.021334 54.954667 39.722666-54.954667h28.074667l-54.656 72.576L834.602667 768h-28.373334l-45.994666-64.213333L713.941333 768h-28.373333l61.226667-81.834667-54.656-72.576z" fill="#FFFFFF" p-id="11559"></path><path d="M644.437333 0a15.36 15.36 0 0 0-1.152 6.058667V235.946667c0 32.554667 27.178667 59.434667 60.928 59.434666H938.666667v-0.384L645.632 0h-1.194667z" fill="#FFFFFF" fill-opacity=".496" p-id="11560"></path></svg>