<?xml version="1.0" standalone="no"?><!DOCTYPE svg PUBLIC "-//W3C//DTD SVG 1.1//EN" "http://www.w3.org/Graphics/SVG/1.1/DTD/svg11.dtd"><svg t="1605172121903" class="icon" viewBox="0 0 1024 1024" version="1.1" xmlns="http://www.w3.org/2000/svg" p-id="7253" xmlns:xlink="http://www.w3.org/1999/xlink" width="200" height="200"><defs><style type="text/css"></style></defs><path d="M675.82396 0H146.67196C131.94396 0 119.99996 11.984 119.99996 35.216v970.496C119.99996 1012.024 131.94396 1024 146.67196 1024h730.648c14.736 0 26.68-11.976 26.68-18.288v-768.4c0-12.728-1.688-16.824-4.68-19.84L687.16796 4.696A16.112 16.112 0 0 0 675.82396 0z" fill="#E9E9E0" p-id="7254"></path><path d="M685.20796 2.76v216.672h216.04z" fill="#D9D7CA" p-id="7255"></path><path d="M263.35196 263.88a83.552 83.304 90 1 0 166.608 0 83.552 83.304 90 1 0-166.608 0Z" fill="#F3D55B" p-id="7256"></path><path d="M119.99996 713.144h784V512L721.67196 338.288l-191.44 210.28-99.968-100.256z" fill="#26B99A" p-id="7257"></path><path d="M877.31996 1024H146.67196A26.72 26.72 0 0 1 119.99996 997.24V713.144h784v284.104A26.72 26.72 0 0 1 877.31996 1024z" fill="#14A085" p-id="7258"></path><path d="M392.14396 779.888v143.504c0 8.672-1.584 15.968-4.744 21.872a39.184 39.184 0 0 1-12.704 14.24 50.584 50.584 0 0 1-18.328 7.496c-6.912 1.432-14 2.144-21.32 2.144-3.664 0-7.944-0.384-12.832-1.136a106.736 106.736 0 0 1-15.2-3.504 163.104 163.104 0 0 1-15.08-5.368c-4.832-2-8.896-4.24-12.216-6.752l12.704-20.232c1.664 1.152 4.024 2.376 7.112 3.616 3.064 1.248 6.432 2.416 10.096 3.496 3.648 1.104 7.48 2.032 11.472 2.864 3.992 0.84 7.728 1.24 11.208 1.24 8.808 0 15.824-1.72 21.056-5.112 5.232-3.408 8.008-9.224 8.352-17.376V779.888h30.424zM466.67196 967.896h-29.92V783.632h52.832c7.808 0 15.536 1.24 23.176 3.76 7.64 2.504 14.488 6.24 20.56 11.24a58.456 58.456 0 0 1 14.72 18.128c3.736 7.072 5.608 15.016 5.608 23.872 0 9.344-1.576 17.8-4.736 25.376-3.16 7.592-7.568 13.968-13.216 19.136-5.656 5.16-12.472 9.168-20.44 11.992-7.976 2.832-16.792 4.24-26.424 4.24h-22.184v66.52h0.024z m0-161.496v73h27.424c3.648 0 7.256-0.624 10.848-1.888 3.568-1.24 6.856-3.28 9.84-6.12 2.992-2.832 5.392-6.792 7.216-11.864 1.832-5.088 2.736-11.384 2.736-18.864 0-3-0.416-6.488-1.24-10.368a29.52 29.52 0 0 0-5.104-11.248c-2.592-3.592-6.2-6.592-10.848-9-4.664-2.432-10.808-3.64-18.448-3.64h-22.424zM721.67196 872.888v71.232a53.792 53.792 0 0 1-12.832 11.872 77.216 77.216 0 0 1-31.152 11.856c-5.576 0.872-11.088 1.28-16.568 1.28-10.984 0-21.064-2-30.288-6a67.84 67.84 0 0 1-24.176-17.752c-6.88-7.832-12.312-17.664-16.2-29.496-3.896-11.832-5.848-25.504-5.848-41s1.952-29.128 5.848-40.864c3.888-11.768 9.296-21.536 16.2-29.368a69.056 69.056 0 0 1 24.304-17.888c9.304-4.088 19.368-6.12 30.168-6.12 9.968 0 19.264 1.656 27.904 5a67.8 67.8 0 0 1 23.176 14.976l-20.696 18.504c-3.992-4.832-8.568-8.336-13.72-10.488a40.736 40.736 0 0 0-15.952-3.264c-6.152 0-12.008 1.168-17.568 3.504-5.576 2.336-10.552 6.296-14.944 11.864-4.416 5.584-7.856 12.776-10.336 21.632-2.488 8.84-3.832 19.648-4 32.488 0.168 12.512 1.456 23.336 3.864 32.496 2.408 9.168 5.728 16.664 9.976 22.504 4.24 5.832 9.056 10.168 14.456 13a36.256 36.256 0 0 0 17.096 4.232c1.808 0 4.256-0.128 7.344-0.376 3.048-0.256 6.144-0.664 9.216-1.248a58.184 58.184 0 0 0 8.848-2.376c2.832-1 4.896-2.408 6.224-4.24v-45.496h-31.16v-20.504h60.824v0.04z" fill="#FFFFFF" p-id="7259"></path></svg>