<?xml version="1.0" standalone="no"?><!DOCTYPE svg PUBLIC "-//W3C//DTD SVG 1.1//EN" "http://www.w3.org/Graphics/SVG/1.1/DTD/svg11.dtd"><svg t="1605172244705" class="icon" viewBox="0 0 1024 1024" version="1.1" xmlns="http://www.w3.org/2000/svg" p-id="13832" xmlns:xlink="http://www.w3.org/1999/xlink" width="200" height="200"><defs><style type="text/css"></style></defs><path d="M962.747961 739.612974l-312.178999-0.363274-0.130983 113.886817-47.218418 49.586348-0.345877-167.355589-194.923458-1.453095 1.416256-62.542428c-65.834404-6.721075-98.56997-40.527019-98.206696-101.411691 1.740644-67.042929 33.004695-101.372805 103.957677-105.261369 51.233871 0.278339 68.242244 24.252357 71.337745 60.638055 1.159406 35.319413-20.431332 58.21896-52.365648 75.468832l-24.521486-35.017538c48.728818-18.316158 46.691415-57.322543 6.299473-58.349943-36.682457 4.411473-57.574277 20.203134-58.153468 63.718207-2.667759 38.372959 21.555945 53.979402 58.016345 59.239196 48.01762-8.928347 81.001849-38.914288 98.943476-89.967034l0.00614-53.936423c-11.659551-77.651544-80.564897-98.060363-152.475693-47.679929l-0.909719-45.906539c12.040221-13.354146 27.087938-20.686135 45.163619-22.007223l0.215918-172.434258c-88.951915 59.573817-128.880299 155.349137-146.68071 275.895631-17.060561-109.569488-56.356542-206.437699-144.567583-275.358395l-1.847068 662.438291L65.520249 892.060015 65.520249 118.385271c87.970564 35.890418 150.851707 108.939131 198.179618 205.807343 39.84652-97.036034 128.007419-192.56576 187.298803-206.877721l-0.544399 255.721149c60.280922 4.79419 96.460935 39.71349 108.543112 104.760972l1.081635 177.798429-40.076764 15.96767-3.5038-54.003961c-14.564717 23.062252-35.158754 40.10337-61.774949 51.109028l1.355881 18.874883 142.970202-0.574075-2.034333-262.638699c-26.549679-63.556525-62.888306-112.429629-113.529683-139.845025l13.208836-41.264822c67.220984 40.787962 110.342084 90.609671 129.3633 149.46615 22.763446-63.909565 66.99074-109.930715 125.914758-143.717216l24.321942 36.540218c-59.283198 31.032784-105.381096 73.366961-122.465193 140.559293l-1.313925 259.06122 230.243895-0.831948-84.72566-221.520209-64.315818 154.703431 86.361927-0.759293-20.953218 39.723723-133.393079 0.455371 132.910079-305.679981L962.747961 739.612974 962.747961 739.612974z" p-id="13833"></path></svg>