<?xml version="1.0" standalone="no"?><!DOCTYPE svg PUBLIC "-//W3C//DTD SVG 1.1//EN" "http://www.w3.org/Graphics/SVG/1.1/DTD/svg11.dtd"><svg t="1605172156417" class="icon" viewBox="0 0 1024 1024" version="1.1" xmlns="http://www.w3.org/2000/svg" p-id="8098" xmlns:xlink="http://www.w3.org/1999/xlink" width="200" height="200"><defs><style type="text/css"></style></defs><path d="M1024 204.8v750.08c0 38.4-35.84 69.12-79.36 69.12H79.36C35.84 1024 0 993.28 0 954.88V69.12C2.56 30.72 35.84 0 79.36 0h709.12L1024 204.8z" fill="#8183F1" p-id="8099"></path><path d="M1024 204.8h-156.16c-43.52 0-79.36-30.72-79.36-69.12V0L1024 204.8z" fill="#B0B0FF" p-id="8100"></path><path d="M645.12 576V512c0-7.68 2.56-12.8 5.12-15.36l71.68-71.68c23.04-25.6 48.64-30.72 48.64-5.12v256c0 25.6-25.6 20.48-48.64-5.12l-71.68-74.24c-2.56-7.68-5.12-12.8-5.12-20.48z m-33.28 71.68c0 20.48-17.92 38.4-38.4 38.4H296.96c-20.48 0-38.4-17.92-38.4-38.4v-209.92c0-20.48 17.92-38.4 38.4-38.4h273.92c20.48 0 38.4 17.92 38.4 38.4l2.56 209.92z" fill="#FFFFFF" p-id="8101"></path></svg>