<?xml version="1.0" standalone="no"?><!DOCTYPE svg PUBLIC "-//W3C//DTD SVG 1.1//EN" "http://www.w3.org/Graphics/SVG/1.1/DTD/svg11.dtd"><svg t="1605172049033" class="icon" viewBox="0 0 1024 1024" version="1.1" xmlns="http://www.w3.org/2000/svg" p-id="3893" xmlns:xlink="http://www.w3.org/1999/xlink" width="200" height="200"><defs><style type="text/css"></style></defs><path d="M142.222222 0h739.555556a56.888889 56.888889 0 0 1 56.888889 56.888889v881.777778a85.333333 85.333333 0 0 1-85.333334 85.333333H170.666667a85.333333 85.333333 0 0 1-85.333334-85.333333V56.888889a56.888889 56.888889 0 0 1 56.888889-56.888889" fill="#FFFFFF" p-id="3894"></path><path d="M142.222222 0h739.555556a56.888889 56.888889 0 0 1 56.888889 56.888889v881.777778a85.333333 85.333333 0 0 1-85.333334 85.333333H170.666667a85.333333 85.333333 0 0 1-85.333334-85.333333V56.888889a56.888889 56.888889 0 0 1 56.888889-56.888889z m0 28.444444a28.444444 28.444444 0 0 0-28.444444 28.444445v881.777778a56.888889 56.888889 0 0 0 56.888889 56.888889h682.666666a56.888889 56.888889 0 0 0 56.888889-56.888889V56.888889a28.444444 28.444444 0 0 0-28.444444-28.444445H142.222222z" fill="#DCDFE6" p-id="3895"></path><path d="M113.777778 144.042667h113.777778v-113.777778H113.777778zM341.333333 144.042667h113.777778v-113.777778H341.333333zM568.888889 144.042667h113.777778v-113.777778h-113.777778zM796.444444 144.042667h113.777778v-113.777778h-113.777778zM227.555556 262.513778h113.777777v-113.777778H227.555556zM455.111111 262.513778h113.777778v-113.777778h-113.777778zM682.666667 262.513778h113.777777v-113.777778h-113.777777zM568.888889 376.291556h113.777778v-113.777778h-113.777778zM796.444444 376.291556h113.777778v-113.777778h-113.777778zM341.333333 376.291556h113.777778v-113.777778H341.333333zM113.777778 376.291556h113.777778v-113.777778H113.777778zM227.555556 490.069333h113.777777v-113.777777H227.555556zM469.333333 490.069333h113.777778v-113.777777h-113.777778zM682.666667 490.069333h113.777777v-113.777777h-113.777777z" fill="#DCDFE6" p-id="3896"></path><path d="M170.666667 568.888889h369.777777l-211.484444-227.555556z" fill="#65B656" p-id="3897"></path><path d="M199.111111 568.888889h654.222222l-240.696889-284.444445z" fill="#86D278" p-id="3898"></path><path d="M284.444444 191.374222a71.082667 71.082667 0 1 0 142.222223 0 71.111111 71.111111 0 0 0-142.222223 0z" fill="#FFCD55" p-id="3899"></path><path d="M853.333333 1024H170.666667a85.333333 85.333333 0 0 1-85.333334-85.333333V512h853.333334v426.666667a85.333333 85.333333 0 0 1-85.333334 85.333333" fill="#C1A074" p-id="3900"></path><path d="M307.996444 654.677333c25.941333 0 46.08 9.216 61.098667 27.648 13.653333 17.066667 20.48 38.912 20.48 66.218667 0 25.941333-6.826667 47.445333-20.138667 64.512-14.336 18.432-34.474667 27.648-59.733333 27.648-21.845333 0-39.594667-10.24-53.930667-30.72v93.525333H219.591111v-244.053333h33.792v21.162667c12.288-17.408 30.72-25.941333 54.613333-25.941334z m-5.461333 29.354667c-15.701333 0-27.989333 6.144-36.522667 18.773333-7.509333 10.922667-11.264 25.6-11.264 43.690667v3.072c0 18.773333 4.437333 34.133333 13.994667 45.738667 8.192 10.581333 19.114667 16.042667 32.768 16.042666 17.749333 0 30.72-5.802667 39.253333-17.408 7.509333-10.922667 11.605333-25.941333 11.605334-45.397333s-3.754667-34.474667-10.581334-45.397333c-8.533333-12.970667-21.504-19.114667-39.253333-19.114667z m210.602667-29.354667c43.690667 0 65.877333 23.893333 65.877333 72.362667v108.885333h-36.181333v-105.813333c0-30.037333-13.994667-45.056-41.301334-45.056-10.24 0-19.456 3.413333-26.965333 10.922667-8.192 8.192-13.312 19.456-14.677333 33.792v106.154666h-36.181334v-176.469333h36.181334v21.845333c6.826667-8.874667 14.677333-15.36 23.552-19.797333a61.44 61.44 0 0 1 29.696-6.826667z m180.565333 0c23.210667 0 40.96 9.216 53.930667 28.330667v-23.552h36.181333v164.864c0 55.978667-27.648 83.968-82.261333 83.968-24.576 0-43.349333-4.778667-56.32-13.994667-12.970667-9.557333-20.821333-23.893333-24.234667-43.349333h36.181333c2.048 10.24 6.144 17.749333 12.970667 22.186667 6.485333 4.096 17.066667 6.485333 31.402667 6.485333 30.72 0 46.08-16.725333 46.08-49.834667v-27.306666c-12.970667 19.456-30.72 29.354667-53.930667 29.354666-23.893333 0-43.349333-8.192-58.026667-24.234666-15.018667-16.042667-22.186667-37.205333-22.186666-63.829334 0-26.624 7.168-47.786667 22.186666-64.170666 14.677333-16.725333 34.133333-24.917333 58.026667-24.917334z m5.461333 29.354667c-15.36 0-27.306667 5.12-35.498666 16.042667-8.874667 10.24-12.970667 24.917333-12.970667 43.690666 0 17.066667 3.413333 30.72 10.24 40.618667 7.850667 11.605333 20.48 17.749333 38.229333 17.749333 15.36 0 27.306667-5.12 36.181334-15.36 8.192-10.581333 12.629333-24.917333 12.629333-43.008 0-18.432-4.437333-33.109333-12.629333-43.690666-8.874667-10.922667-20.821333-16.042667-36.181334-16.042667z" fill="#FFFFFF" p-id="3901"></path></svg>