<?xml version="1.0" standalone="no"?><!DOCTYPE svg PUBLIC "-//W3C//DTD SVG 1.1//EN" "http://www.w3.org/Graphics/SVG/1.1/DTD/svg11.dtd"><svg t="1605172068694" class="icon" viewBox="0 0 1024 1024" version="1.1" xmlns="http://www.w3.org/2000/svg" p-id="4876" xmlns:xlink="http://www.w3.org/1999/xlink" width="200" height="200"><defs><style type="text/css"></style></defs><path d="M1005.714 1005.714H18.286V18.286H730.88L877.714 164.57l128 128v713.143z" fill="#002732" p-id="4877"></path><path d="M1024 1024H0V0h738.377L1024 285.074zM36.571 987.429H987.43v-687.36L723.383 36.57H36.57z" fill="#00D4FC" p-id="4878"></path><path d="M146.286 164.571H512v36.572H146.286z m0 109.715H512v36.571H146.286z m0 109.714H512v36.571H146.286z" fill="#00D4FC" opacity=".3" p-id="4879"></path><path d="M731.429 0v292.571H1024L731.429 0zM196.023 791.589v44.982h-45.897V791.59z m133.12-163.84a86.491 86.491 0 0 1 33.463 5.668 62.171 62.171 0 0 1 22.308 14.994 54.857 54.857 0 0 1 12.617 21.395 78.263 78.263 0 0 1 0 49.554A54.857 54.857 0 0 1 384 740.937a62.171 62.171 0 0 1-22.309 14.994 86.491 86.491 0 0 1-33.462 5.669h-48.275v74.971h-45.897V627.75z m-12.434 98.194a104.046 104.046 0 0 0 15.177-1.097 35.474 35.474 0 0 0 12.8-4.572 25.051 25.051 0 0 0 8.96-9.508 40.96 40.96 0 0 0 0-32.183 25.051 25.051 0 0 0-8.96-9.509 35.474 35.474 0 0 0-12.8-4.571 104.046 104.046 0 0 0-15.177-1.097h-36.572v62.537z m143.177 72.96a25.234 25.234 0 0 0 7.131 8.046 29.44 29.44 0 0 0 10.057 4.388 42.423 42.423 0 0 0 11.886 1.463 39.863 39.863 0 0 0 9.143-0.914 31.269 31.269 0 0 0 8.777-3.292 17.006 17.006 0 0 0 6.583-5.851 14.629 14.629 0 0 0 2.743-9.143c0-6.217-4.206-10.971-12.435-14.08a256 256 0 0 0-34.742-9.326c-6.035-1.463-11.886-2.925-18.286-4.937a59.611 59.611 0 0 1-15.36-7.314 35.474 35.474 0 0 1-10.789-11.337 32.366 32.366 0 0 1-4.023-16.823 45.166 45.166 0 0 1 5.669-23.954 42.971 42.971 0 0 1 14.994-14.812 65.646 65.646 0 0 1 21.029-7.68 131.657 131.657 0 0 1 24.137-2.194 128 128 0 0 1 23.771 2.377 66.56 66.56 0 0 1 20.663 7.863 50.286 50.286 0 0 1 14.995 14.811 49.006 49.006 0 0 1 7.131 23.223h-38.949a18.286 18.286 0 0 0-8.96-16.091 40.411 40.411 0 0 0-19.382-4.389h-7.498a23.771 23.771 0 0 0-7.497 1.829 16.457 16.457 0 0 0-5.668 4.205 11.154 11.154 0 0 0-2.377 7.498 11.337 11.337 0 0 0 4.022 9.142 31.634 31.634 0 0 0 10.789 5.669c4.389 1.463 9.326 2.743 14.994 4.023l17.189 3.657a167.314 167.314 0 0 1 18.286 5.12 50.469 50.469 0 0 1 15.36 7.68 37.851 37.851 0 0 1 10.788 12.069 34.56 34.56 0 0 1 4.206 18.285 47.909 47.909 0 0 1-6.034 25.052 46.263 46.263 0 0 1-15.726 16.274 64.731 64.731 0 0 1-21.943 8.594 131.657 131.657 0 0 1-25.417 2.56 121.051 121.051 0 0 1-25.783-2.743 64.731 64.731 0 0 1-22.309-8.777 50.103 50.103 0 0 1-16.091-16.091 52.663 52.663 0 0 1-6.949-25.417h39.132a20.846 20.846 0 0 0 2.743 11.337z m229.485 18.286a43.52 43.52 0 0 1-19.2 18.285 62.72 62.72 0 0 1-26.697 5.486 65.28 65.28 0 0 1-29.988-6.583 61.074 61.074 0 0 1-21.212-18.286 80.457 80.457 0 0 1-12.434-25.782 106.24 106.24 0 0 1-4.389-30.538 99.84 99.84 0 0 1 4.389-29.44 75.703 75.703 0 0 1 12.434-24.868 63.269 63.269 0 0 1 21.029-18.286 62.171 62.171 0 0 1 29.257-6.583 59.611 59.611 0 0 1 25.6 5.852 43.886 43.886 0 0 1 19.2 16.823v-75.52h41.509V836.57H689.92V817.19z m-1.828-74.606a40.96 40.96 0 0 0-6.034-15.36 32 32 0 0 0-10.972-10.606 31.451 31.451 0 0 0-16.823-4.023 34.011 34.011 0 0 0-18.285 4.023 33.097 33.097 0 0 0-11.155 10.789 47.543 47.543 0 0 0-6.217 15.36 83.2 83.2 0 0 0-1.828 18.285 71.863 71.863 0 0 0 2.011 18.286 43.886 43.886 0 0 0 6.583 15.543 34.743 34.743 0 0 0 11.337 11.154 31.634 31.634 0 0 0 16.64 4.206 32.549 32.549 0 0 0 17.006-4.023 31.451 31.451 0 0 0 10.971-10.971 47.543 47.543 0 0 0 5.852-15.726 84.48 84.48 0 0 0 1.828-18.286 81.554 81.554 0 0 0-0.914-18.651z" fill="#00D4FC" p-id="4880"></path></svg>