<?xml version="1.0" standalone="no"?><!DOCTYPE svg PUBLIC "-//W3C//DTD SVG 1.1//EN" "http://www.w3.org/Graphics/SVG/1.1/DTD/svg11.dtd"><svg t="1605172024827" class="icon" viewBox="0 0 1024 1024" version="1.1" xmlns="http://www.w3.org/2000/svg" p-id="2928" xmlns:xlink="http://www.w3.org/1999/xlink" width="200" height="200"><defs><style type="text/css"></style></defs><path d="M929.28 251.904L680.96 8.704H184.832C138.752 8.704 102.4 46.08 102.4 91.136v850.432c0 46.08 37.376 82.432 82.432 82.432h662.016c46.08 0 82.432-37.376 82.432-82.432V251.904zM856.576 942.08c0 5.12-4.608 9.728-9.728 9.728H184.832c-5.12 0-9.728-4.608-9.728-9.728V91.136c0-5.12 4.608-9.728 9.728-9.728h423.936v243.2h247.808V942.08z" p-id="2929"></path><path d="M732.672 480.768c0 20.48-16.384 36.352-36.352 36.352H334.848c-20.48 0-36.352-16.384-36.352-36.352 0-20.48 16.384-36.352 36.352-36.352h362.496c19.456-0.512 35.328 15.872 35.328 36.352z m-0.512 144.896c0 20.48-16.384 36.352-36.352 36.352H333.824c-20.48 0-36.352-16.384-36.352-36.352 0-20.48 16.384-36.352 36.352-36.352H696.32c19.456 0 35.84 16.384 35.84 36.352z m0 145.408c0 20.48-16.384 36.352-36.352 36.352H333.824c-20.48 0-36.352-16.384-36.352-36.352 0-20.48 16.384-36.352 36.352-36.352H696.32c19.456-0.512 35.84 15.872 35.84 36.352z m-216.576-435.712c0 19.968-16.384 35.84-35.84 35.84H334.848c-19.968 0-35.84-16.384-35.84-35.84 0-19.968 16.384-35.84 35.84-35.84h144.896c19.968-0.512 35.84 15.872 35.84 35.84z" p-id="2930"></path></svg>