<?xml version="1.0" standalone="no"?><!DOCTYPE svg PUBLIC "-//W3C//DTD SVG 1.1//EN" "http://www.w3.org/Graphics/SVG/1.1/DTD/svg11.dtd"><svg t="1605172394120" class="icon" viewBox="0 0 1024 1024" version="1.1" xmlns="http://www.w3.org/2000/svg" p-id="15343" xmlns:xlink="http://www.w3.org/1999/xlink" width="200" height="200"><defs><style type="text/css"></style></defs><path d="M876.978585 1024H216.462038a69.108371 69.108371 0 0 1-69.108372-69.108371V497.380921L78.079169 427.441921v-152.669695a123.597664 123.597664 0 0 1 69.274497-110.639844V69.108371A69.108371 69.108371 0 0 1 216.462038 0H745.905256l199.351071 200.1817v754.709929a69.108371 69.108371 0 0 1-68.277742 69.108371zM111.304348 413.819598l69.274497 69.939v471.133031a35.883193 35.883193 0 0 0 35.883193 35.883193h660.516547a35.883193 35.883193 0 0 0 35.717067-35.883193V213.804023L732.116807 33.225178h-514.990266a35.883193 35.883193 0 0 0-36.547696 35.883193v117.451006l-10.798183 3.987021A90.20636 90.20636 0 0 0 111.304348 274.772226z" fill="#939393" p-id="15344"></path><path d="M94.691759 420.630759h69.274497v69.939001L94.691759 420.630759z" fill="#7A7A7A" p-id="15345"></path><path d="M929.308241 206.992862v747.566515a52.329656 52.329656 0 0 1-52.329656 52.495782H216.462038a52.329656 52.329656 0 0 1-52.495782-52.495782V69.108371A52.329656 52.329656 0 0 1 216.462038 16.612589h522.465931" fill="#FFFFFF" p-id="15346"></path><path d="M738.927969 154.49708a52.495782 52.495782 0 0 0 52.495782 52.495782h137.88449L738.927969 16.612589z" fill="#E4E4E4" p-id="15347"></path><path d="M201.344581 168.119403h354.014277a106.652823 106.652823 0 0 1 106.652823 106.652823v39.371836a106.652823 106.652823 0 0 1-106.652823 106.652823H94.691759v-146.024659a106.652823 106.652823 0 0 1 106.652822-106.652823z" fill="#939393" p-id="15348"></path><path d="M227.592472 315.639195v-3.322518a41.199221 41.199221 0 0 1 17.941597-33.225178 25.583387 25.583387 0 0 0 10.798183-20.599611 13.954575 13.954575 0 0 0-15.117456-14.619078c-11.296561 0-16.612589 7.475665-16.61259 17.609344H200.846204a36.547696 36.547696 0 0 1 39.870214-35.384815 33.225178 33.225178 0 0 1 37.710577 33.225179 39.537962 39.537962 0 0 1-16.612589 32.062297 27.244646 27.244646 0 0 0-10.964309 21.762492V315.639195z m0 39.205711v-28.739779h23.589877v28.573653zM320.955224 315.639195v-3.322518a41.199221 41.199221 0 0 1 17.941596-33.225178 25.583387 25.583387 0 0 0 10.798183-20.599611 13.954575 13.954575 0 0 0-15.117456-14.619078c-11.296561 0-16.612589 7.475665-16.612589 17.609344h-22.925373a36.547696 36.547696 0 0 1 40.03634-35.384815 33.225178 33.225178 0 0 1 37.544451 33.225179 39.537962 39.537962 0 0 1-16.612589 32.062297 27.244646 27.244646 0 0 0-12.12719 22.26087V315.639195z m0 39.205711v-28.739779H343.880597v28.573653zM415.148605 315.639195v-3.322518a41.199221 41.199221 0 0 1 17.941596-33.225178 25.583387 25.583387 0 0 0 10.465931-20.101233 13.954575 13.954575 0 0 0-15.117456-14.619078c-11.296561 0-16.612589 7.475665-16.612589 17.609344h-22.593121a36.547696 36.547696 0 0 1 40.03634-35.384815 33.225178 33.225178 0 0 1 37.544451 33.225179 39.537962 39.537962 0 0 1-16.612589 32.062297 27.244646 27.244646 0 0 0-10.964309 21.762492V315.639195z m0 39.205711v-28.739779h23.589877v28.573653z" fill="#FFFFFF" p-id="15349"></path><path d="M737.100584 550.873459v232.576249H356.007787v-232.576249h381.092797m31.065542-31.065542H324.942245v295.205711h443.223881V519.807917z" fill="#939393" p-id="15350"></path><path d="M460.168722 588.251785h15.449708v20.765736h53.990915v14.95133h-54.821545v24.918884h62.463336V664.503569h-49.837768a144.197274 144.197274 0 0 0 53.658663 49.837768l-10.798183 13.954575a168.285529 168.285529 0 0 1-54.821544-64.789098v72.430889H460.168722V664.503569a147.187541 147.187541 0 0 1-56.482804 64.955224L393.718365 714.341337a130.408825 130.408825 0 0 0 53.160285-49.837768h-49.837767v-14.785204H460.168722v-24.918884h-53.824789v-14.95133H460.168722zM580.776119 622.639844a170.27904 170.27904 0 0 1-12.459442 22.26087l-13.456197-8.638547a150.343933 150.343933 0 0 0 21.596366-48.841012l15.117456 3.322518c-1.162881 4.485399-2.990266 10.133679-5.482154 16.612589h44.023361v14.785205h-21.43024c0 11.296561-0.830629 20.599611-1.661259 27.909149h25.08501V664.503569h-27.244646l-1.993511 10.299805c9.30305 9.635302 19.436729 20.765737 30.068787 33.225179l-9.30305 14.286827c-9.967554-14.286827-18.439974-25.417262-25.251136-33.225179a96.519143 96.519143 0 0 1-34.554186 42.86048l-10.133679-12.293316a84.890331 84.890331 0 0 0 33.225178-45.68462l2.159637-9.469176h-31.896171v-14.619078h34.055808c0.830629-7.309539 1.329007-16.612589 1.661259-27.90915z m116.288125-19.270603v125.7573h-14.785204v-9.136924h-28.241402v9.30305h-14.785205v-125.923426z m-43.026606 102.333549h28.241402v-87.880597h-28.241402z" fill="#939393" p-id="15351"></path></svg>